<svg width="137" height="39" fill="none" xmlns="http://www.w3.org/2000/svg"><path d="M136.067 0v38.48h-20.732V0h20.732Zm-91.05 12.454c.987 0 1.967.07 2.94.207.974.138 1.855.42 2.645.848a5.02 5.02 0 0 1 1.904 1.8c.48.773.72 1.78.72 3.02v11.007c0 .827.048 1.434.147 1.82.099.387.43.58.994.58.31 0 .677-.07 1.1-.207v2.73c-.62.36-1.48.538-2.58.538-.931 0-1.672-.255-2.222-.765s-.825-1.345-.825-2.503c-.987 1.158-2.136 1.993-3.448 2.503-1.312.51-2.729.766-4.252.766-.987 0-1.925-.11-2.813-.331-.889-.221-1.658-.566-2.306-1.035a4.99 4.99 0 0 1-1.545-1.841c-.38-.759-.57-1.676-.57-2.752 0-1.213.21-2.206.634-2.979.423-.772.98-1.4 1.671-1.882a7.736 7.736 0 0 1 2.37-1.097 29.019 29.019 0 0 1 2.728-.62 33.628 33.628 0 0 1 2.814-.435 15.986 15.986 0 0 0 2.348-.414c.677-.179 1.213-.441 1.608-.786.395-.345.592-.848.592-1.51 0-.773-.148-1.393-.444-1.862a3.018 3.018 0 0 0-1.142-1.076 4.719 4.719 0 0 0-1.566-.496 12.092 12.092 0 0 0-1.713-.125c-1.524 0-2.793.283-3.808.849-1.016.565-1.566 1.634-1.65 3.206H35.75c.057-1.324.339-2.44.846-3.351a6.325 6.325 0 0 1 2.031-2.214c.847-.565 1.813-.972 2.899-1.22a15.634 15.634 0 0 1 3.49-.373Zm44.848 0c1.946 0 3.561.393 4.844 1.18 1.284.786 2.313 1.786 3.089 3a11.707 11.707 0 0 1 1.608 3.971c.296 1.435.416 2.8.36 4.097H83.391a8.314 8.314 0 0 0 .338 2.668 6.003 6.003 0 0 0 1.227 2.235c.564.648 1.283 1.165 2.158 1.551.874.387 1.904.58 3.088.58 1.523 0 2.772-.345 3.745-1.035.973-.69 1.615-1.738 1.925-3.144h3.554c-.48 2.4-1.537 4.206-3.173 5.42-1.636 1.214-3.695 1.82-6.178 1.82-1.748 0-3.264-.275-4.548-.827-1.283-.552-2.362-1.324-3.236-2.317-.875-.993-1.53-2.18-1.968-3.558-.437-1.38-.684-2.883-.74-4.51 0-1.628.254-3.117.761-4.47.508-1.35 1.22-2.523 2.137-3.516a9.688 9.688 0 0 1 3.258-2.317c1.255-.552 2.63-.828 4.125-.828Zm34.947 0c-.959 0-1.925.117-2.898.352a8.849 8.849 0 0 0-2.623 1.076 5.987 5.987 0 0 0-1.904 1.882c-.493.773-.74 1.697-.74 2.773 0 1.379.352 2.455 1.057 3.227.706.772 1.587 1.372 2.645 1.8 1.058.427 2.207.758 3.448.993a44.08 44.08 0 0 1 3.448.786c1.058.29 1.939.669 2.645 1.138.705.469 1.057 1.158 1.057 2.069 0 .662-.169 1.206-.507 1.634a3.213 3.213 0 0 1-1.291.972 6.63 6.63 0 0 1-1.713.456c-.621.082-1.213.124-1.777.124-.734 0-1.446-.07-2.137-.207a6.081 6.081 0 0 1-1.862-.683 3.783 3.783 0 0 1-1.332-1.283c-.339-.537-.522-1.193-.55-1.965h-3.597c.057 1.324.339 2.448.846 3.372a6.277 6.277 0 0 0 2.031 2.235c.847.565 1.82.972 2.92 1.22 1.1.248 2.256.373 3.469.373 1.1 0 2.207-.104 3.321-.31 1.114-.208 2.116-.573 3.004-1.097a6.38 6.38 0 0 0 2.158-2.07c.55-.854.825-1.93.825-3.227 0-1.02-.204-1.875-.613-2.565a5.401 5.401 0 0 0-1.608-1.717 8.712 8.712 0 0 0-2.285-1.096 27.52 27.52 0 0 0-2.644-.704c-.846-.193-1.693-.38-2.539-.558-.846-.18-1.607-.4-2.284-.662-.677-.262-1.234-.593-1.672-.993-.437-.4-.655-.904-.655-1.51 0-.552.141-1 .423-1.345.282-.345.648-.621 1.1-.828a5.577 5.577 0 0 1 1.502-.434c.55-.083 1.093-.125 1.629-.125.592 0 1.177.063 1.755.187a5.442 5.442 0 0 1 1.587.6c.48.275.874.641 1.185 1.096.31.455.493 1.028.55 1.717h3.596c-.085-1.296-.367-2.379-.846-3.248a5.618 5.618 0 0 0-1.925-2.069c-.804-.51-1.728-.868-2.772-1.075-1.043-.207-2.186-.31-3.427-.31Zm-101.415 0c1.1 0 2.094.117 2.983.352.888.234 1.65.6 2.285 1.097a4.983 4.983 0 0 1 1.48 1.923c.353.787.53 1.731.53 2.835v15.681h-3.597V20.316c0-.662-.056-1.283-.17-1.862a3.758 3.758 0 0 0-.634-1.51c-.31-.428-.74-.766-1.29-1.014s-1.263-.373-2.137-.373c-1.777 0-3.173.497-4.189 1.49-1.015.993-1.523 2.317-1.523 3.972v13.323H13.54V20.316c0-.69-.063-1.324-.19-1.903a3.992 3.992 0 0 0-.656-1.51 3.051 3.051 0 0 0-1.248-.994c-.522-.234-1.192-.352-2.01-.352-1.044 0-1.94.207-2.687.621-.747.414-1.354.91-1.819 1.49a5.936 5.936 0 0 0-1.015 1.8c-.212.62-.318 1.137-.318 1.551v13.323H0V12.951h3.385v3.144h.084c1.636-2.427 3.992-3.64 7.066-3.64 1.354 0 2.58.275 3.68.827 1.101.552 1.877 1.49 2.328 2.813a7.568 7.568 0 0 1 2.898-2.69c1.199-.633 2.518-.95 3.956-.95ZM62.617 4.8v17.502l9.986-9.351h4.823l-8.673 7.779 9.308 13.612h-4.57l-7.489-11.171-3.384 3.062v8.11h-3.596V4.8h3.596Zm52.253 7.654v3.724c-1.439 0-2.666.193-3.681.58-1.016.386-1.834.951-2.454 1.696-.621.745-1.072 1.648-1.354 2.71-.282 1.062-.423 2.283-.423 3.662v9.516h-3.596V12.951h3.384v4.51h.085c.874-1.738 1.946-3.02 3.215-3.848 1.27-.828 2.877-1.214 4.824-1.159Zm-65.241 10.84c-.451.332-1.044.573-1.777.725-.734.152-1.502.276-2.306.372-.804.097-1.615.207-2.433.331a9.102 9.102 0 0 0-2.2.6 3.993 3.993 0 0 0-1.586 1.18c-.41.51-.614 1.206-.614 2.09 0 .578.12 1.068.36 1.468.24.4.55.724.93.972.381.248.825.428 1.333.538.508.11 1.044.166 1.608.166 1.185 0 2.2-.159 3.046-.476.846-.317 1.537-.717 2.073-1.2s.931-1.007 1.185-1.572c.254-.566.38-1.097.38-1.593v-3.6Zm40.024-7.737c-.93 0-1.77.16-2.517.476a5.818 5.818 0 0 0-1.925 1.304 6.223 6.223 0 0 0-1.27 1.924 7.192 7.192 0 0 0-.55 2.338h12.566a7.064 7.064 0 0 0-.57-2.359 6.022 6.022 0 0 0-1.312-1.924 6.238 6.238 0 0 0-1.947-1.283c-.747-.317-1.572-.476-2.475-.476Z" fill="#fff"/></svg>